<svg xmlns="http://www.w3.org/2000/svg" width="100%" height="100%" viewBox="0 0 635 272">
  <g fill="#FFE81F" transform="translate(-1 -1)">
    <path d="M116.718,8.207 L125.388,33.668 C130.079,47.436 134.267,58.447 134.813,58.447 C134.822,58.447 134.83,58.443 134.837,58.437 C135.437,57.907 152.407,8.626 152.407,8.626 L185.297,8.626 L145.617,124.245 L122.757,124.245 C122.757,124.245 98.357,53.774 98.457,53.506 L72.987,123.357 L50.357,123.357 L11.177,8.207 L43.907,8.228 C43.907,8.228 61.836,59.049 62.075,59.049 C62.076,59.049 62.076,59.048 62.077,59.047 L79.967,8.206 L116.718,8.206 L116.718,8.207 Z M0.003,0.2 L3.604,10.784 L42.784,125.933 L44.629,131.357 L50.358,131.357 L72.988,131.357 L78.586,131.357 L80.504,126.097 L98.189,77.597 C99.713,82.031 101.36,86.81 103.007,91.585 C109.096,109.24 115.198,126.862 115.198,126.862 L117.062,132.245 L122.758,132.245 L145.618,132.245 L151.33,132.245 L153.184,126.842 L192.864,11.224 L196.501,0.626 L185.297,0.626 L152.407,0.626 L146.701,0.626 L144.843,6.022 C141.869,14.657 137.922,26.053 134.547,35.698 C134.038,34.235 133.508,32.697 132.96,31.087 L124.291,5.627 L122.445,0.206 L116.718,0.206 L79.968,0.206 L74.302,0.206 L72.421,5.551 L61.968,35.257 C58.515,25.551 54.512,14.24 51.452,5.566 L49.57,0.232 L43.913,0.228 L11.183,0.207 L0.003,0.2 L0.003,0.2 L0.003,0.2 Z" transform="translate(3.092 140.084)"/>
    <path d="M278.258,8.758 L278.183,39.063 C278.183,39.063 245.54,38.954 228.944,38.954 C223.423,38.954 219.678,38.967 219.5,38.999 C216.64,39.52 214.819,45.601 215.63,48.27 C216.029,49.62 219.021,54.03 222.26,58.08 C225.489,62.131 230.8,68.761 234.04,72.809 C242.359,83.19 243.5,85.239 244.269,91.2 C245.519,100.881 240.94,111.36 232.44,118.27 C223.922,125.2 224.295,125.249 161.057,125.249 L158.28,125.249 C119.82,125.239 99.48,124.92 96.519,124.26 C91.259,123.07 82.879,116.23 60.729,94.98 C52.762,87.344 45.42,80.658 45.043,80.656 C45.033,80.656 45.028,80.662 45.028,80.672 L44.767,125.251 L8.868,125.092 L8.647,10.112 L53.918,10.112 L88.708,10.112 C112.838,10.983 129.168,35.022 125.918,50.352 C125.178,53.831 123.298,58.873 121.737,61.552 C118.527,67.052 110.357,74.112 103.726,77.143 C101.277,78.251 99.277,79.541 99.277,80.001 C99.277,81.711 107.338,89.65 110.357,90.911 C112.936,91.99 120.447,92.23 153.567,92.23 C157.449,92.23 160.975,92.232 164.175,92.232 C197.468,92.232 195.793,91.992 198.365,86.491 C200.166,82.661 198.796,80.371 186.126,66.101 C170.075,50.13 171.756,42.48 171.646,36.83 C171.417,30.06 176.748,8.761 204.458,8.761 L278.258,8.758 L278.258,8.758 Z M63.188,61.878 C78.558,61.878 81.678,61.639 84.949,60.218 C95.989,55.418 96.579,41.239 85.989,34.947 C83.67,33.566 80.689,33.338 64.029,33.247 L44.75,33.146 C44.909,33.296 44.689,60.716 44.689,60.716 C44.689,60.716 49.518,61.878 63.188,61.878 L63.188,61.878 Z M286.277,0.758 L278.256,0.758 L204.456,0.758 C188.424,0.758 178.941,7.086 173.81,12.395 C165.463,21.028 163.497,31.899 163.648,37.024 C163.656,37.451 163.651,37.889 163.646,38.346 C163.573,46.675 164.8,56.104 180.305,71.592 C183.37,75.044 188.498,80.831 190.436,83.707 C186.198,84.228 175.456,84.228 164.174,84.228 L159.382,84.228 L153.566,84.226 C133.662,84.226 116.878,84.169 113.438,83.49 C112.957,83.176 112.282,82.636 111.54,81.992 C118.417,77.757 125.37,71.193 128.644,65.58 C130.631,62.167 132.822,56.337 133.742,52.012 C135.782,42.387 132.417,30.776 124.741,20.944 C115.785,9.473 102.756,2.61 88.995,2.114 L88.85,2.108 L88.705,2.108 L53.915,2.108 L8.644,2.108 L0.628,2.108 L0.644,10.125 L0.865,125.104 L0.881,133.053 L8.83,133.088 L44.729,133.247 L52.717,133.282 L52.764,125.294 L52.919,98.588 C53.652,99.284 54.41,100.007 55.188,100.753 C79.415,123.993 87.547,130.432 94.75,132.061 C96.729,132.502 100.003,133.233 158.273,133.249 L161.052,133.249 C192.598,133.249 208.432,133.249 217.851,132.339 C228.64,131.296 232.11,128.849 237.312,124.614 L237.485,124.473 C248.17,115.786 253.808,102.643 252.2,90.173 C251.152,82.063 249.006,78.694 240.278,67.805 L237.684,64.565 C234.644,60.766 230.971,56.178 228.509,53.09 C226.523,50.606 224.963,48.401 224.022,46.957 C225.258,46.954 226.863,46.952 228.94,46.952 C245.335,46.952 277.827,47.06 278.153,47.062 L286.161,47.088 L286.181,39.08 L286.256,8.774 L286.277,0.758 L286.277,0.758 L286.277,0.758 Z M52.739,53.586 C52.752,51.565 52.764,49.299 52.777,47.029 C52.787,45.029 52.796,43.025 52.799,41.189 L63.986,41.247 C70.415,41.282 80.089,41.335 81.975,41.87 C84.382,43.331 85.725,45.59 85.579,47.93 C85.499,49.194 84.897,51.518 81.758,52.881 C80.008,53.641 77.218,53.878 63.188,53.878 C58.738,53.878 55.305,53.749 52.739,53.586 L52.739,53.586 L52.739,53.586 Z" transform="translate(348.092 139.084)"/>
    <path d="M105.908,8.287 L146.198,124.207 L113.368,124.357 L107.918,106.947 L49.218,106.476 L44.038,123.907 L11.538,123.566 L51.318,8.337 L105.908,8.287 L105.908,8.287 Z M79.507,25.283 C79.424,25.616 74.363,39.502 69.285,53.387 C64.165,67.387 59.028,81.387 58.957,81.496 C58.957,81.497 58.956,81.497 58.957,81.497 L58.957,81.497 C58.957,81.497 58.957,81.497 58.957,81.496 C59.093,81.456 77.273,81.416 88.925,81.416 C94.378,81.416 98.4,81.425 98.475,81.445 C98.476,81.449 98.476,81.45 98.476,81.45 L98.476,81.447 C98.476,81.447 98.476,81.447 98.475,81.445 C98.271,80.916 79.566,25.959 79.507,25.283 C79.508,25.279 79.508,25.277 79.508,25.277 L79.508,25.277 C79.507,25.277 79.507,25.279 79.507,25.283 L79.507,25.283 Z M111.595,0.282 L105.902,0.287 L51.312,0.338 L45.616,0.343 L43.757,5.729 L3.977,120.958 L0.354,131.452 L11.456,131.567 L43.956,131.908 L49.989,131.971 L51.708,126.189 L55.174,114.527 L102.028,114.902 L105.736,126.75 L107.501,132.388 L113.408,132.362 L146.237,132.212 L157.432,132.16 L153.756,121.586 L113.466,5.666 L111.595,0.282 L111.595,0.282 L111.595,0.282 Z M70.472,73.424 C71.987,69.295 74.028,63.714 76.799,56.135 C77.668,53.759 78.463,51.584 79.192,49.59 C79.855,51.546 80.577,53.674 81.361,55.988 C82.007,57.894 84.846,66.258 87.281,73.416 C80.041,73.416 74.591,73.417 70.472,73.424 L70.472,73.424 L70.472,73.424 Z" transform="translate(178.092 139.084)"/>
    <path d="M297.488,8.928 L297.488,37.528 L240.208,37.528 L240.208,124.998 L206.058,124.998 L206.058,37.458 L139.198,37.648 C131.138,37.648 130.058,44.068 130.058,46.528 C130.058,49.548 132.028,52.568 142.848,66.268 C149.868,75.168 156.318,84.048 157.168,85.988 C161.808,96.668 155.808,113.308 144.878,120.068 C137.088,124.881 138.419,124.999 80.57,124.999 L71.178,124.999 L8.908,124.999 L8.908,92.869 L106.808,92.869 L109.698,90.859 C111.648,89.499 112.778,87.629 113.208,85.069 C113.808,81.389 113.498,80.909 101.408,67.289 C87.118,51.189 85.608,48.249 86.348,37.969 C87.188,26.239 97.648,9.199 115.928,9.199 L297.488,8.928 L297.488,8.928 Z M305.488,0.916 L297.475,0.928 L115.915,1.198 C105.457,1.198 95.744,5.716 88.573,13.92 C82.759,20.572 78.943,29.349 78.367,37.397 C77.394,50.908 80.504,55.79 95.423,72.599 C99.753,77.476 103.87,82.115 105.244,84.085 C105.222,84.164 105.202,84.215 105.19,84.244 C105.175,84.256 105.152,84.274 105.12,84.296 L104.298,84.868 L8.908,84.868 L0.908,84.868 L0.908,92.868 L0.908,124.998 L0.908,132.998 L8.908,132.998 L71.178,132.998 L76.115,132.998 L80.57,132.998 C109.092,132.998 123.17,132.971 131.464,132.363 C140.954,131.668 143.982,130.04 148.518,127.223 L149.084,126.872 C163.346,118.051 170.696,97.045 164.506,82.798 C162.596,78.44 150.503,63.052 149.13,61.312 C145.334,56.505 139.068,48.572 138.076,46.276 C138.1,46.083 138.147,45.883 138.197,45.744 C138.362,45.702 138.678,45.646 139.198,45.646 L198.058,45.479 L198.058,124.996 L198.058,132.996 L206.058,132.996 L240.208,132.996 L248.208,132.996 L248.208,124.996 L248.208,45.526 L297.488,45.526 L305.488,45.526 L305.488,37.526 L305.488,8.926 L305.488,0.916 L305.488,0.916 L305.488,0.916 Z" transform="translate(.092 .084)"/>
    <path d="M106.548,8.857 L146.728,125.077 L113.958,124.897 L108.638,107.487 L50.199,107.227 L44.978,123.997 L11.609,123.997 L51.348,8.857 L106.548,8.857 L106.548,8.857 Z M59.737,82.478 L99.538,82.428 C99.539,82.428 99.539,82.429 99.539,82.429 C99.675,82.429 80.197,25.228 80.067,25.188 L80.067,25.188 C79.925,25.183 59.288,82.478 59.737,82.478 L59.737,82.478 Z M112.247,0.857 L106.548,0.857 L51.348,0.857 L45.647,0.857 L43.787,6.247 L4.047,121.388 L0.385,131.998 L11.61,131.998 L44.98,131.998 L50.869,131.998 L52.619,126.375 L56.08,115.254 L102.712,115.461 L106.311,127.235 L108.032,132.864 L113.919,132.897 L146.689,133.077 L157.986,133.139 L154.295,122.463 L114.115,6.243 L112.247,0.857 L112.247,0.857 L112.247,0.857 Z M70.851,74.464 C73.319,67.437 76.755,57.807 79.865,49.152 C82.813,57.796 86.074,67.397 88.453,74.442 L70.851,74.464 L70.851,74.464 L70.851,74.464 Z" transform="translate(284.092 1.084)"/>
    <path d="M50.396,8.857 C76.317,8.857 94.306,9.227 97.766,9.827 C105.766,11.217 112.996,15.487 118.416,22.047 C124.086,28.907 125.386,32.187 126.126,41.587 C127.187,54.857 120.876,66.307 108.426,73.737 C104.796,75.907 101.067,78.017 100.136,78.437 C98.706,79.087 98.897,79.707 101.456,82.707 C103.105,84.637 105.966,87.387 107.806,88.817 L111.166,91.427 L173.246,92.317 L173.855,123.997 L135.794,123.997 C106.355,123.997 96.934,123.727 94.174,122.797 C90.044,121.397 80.105,112.977 59.903,93.757 L45.483,80.037 L45.635,123.997 L8.592,123.997 L8.592,8.857 L50.396,8.857 L50.396,8.857 Z M44.938,60.627 L64.609,60.627 C83.75,60.627 84.348,60.567 87.079,58.517 C91.96,54.857 93.688,51.087 93.17,45.297 C92.64,39.327 90.34,36.217 84.569,33.717 C81.319,32.297 78.188,32.067 62.848,32.067 L44.938,32.067 L44.938,60.627 L44.938,60.627 Z M50.396,0.857 L8.596,0.857 L0.596,0.857 L0.596,8.857 L0.596,123.997 L0.596,131.997 L8.596,131.997 L45.639,131.997 L53.667,131.997 L53.639,123.969 L53.551,98.753 L54.391,99.552 C79.377,123.325 86.747,128.725 91.609,130.373 C95.342,131.632 101.591,131.997 135.797,131.997 L173.858,131.997 L182.012,131.997 L181.856,123.843 L181.247,92.163 L181.099,84.429 L173.365,84.318 L113.963,83.467 L112.718,82.5 C112.322,82.191 111.842,81.783 111.329,81.321 C111.775,81.057 112.183,80.814 112.536,80.604 C127.539,71.651 135.402,57.197 134.105,40.951 C133.242,29.992 131.285,25.055 124.585,16.951 C118.001,8.982 108.964,3.653 99.138,1.946 C93.678,0.999 66.257,0.857 50.396,0.857 L50.396,0.857 L50.396,0.857 Z M52.938,40.067 L62.848,40.067 C76.875,40.067 79.654,40.3 81.366,41.048 C84.616,42.456 84.946,43.139 85.201,46.005 C85.457,48.853 85.104,49.999 82.279,52.117 C82.186,52.186 82.115,52.24 82.056,52.283 C80.191,52.628 73.27,52.628 64.609,52.628 L52.939,52.628 L52.938,40.067 L52.938,40.067 L52.938,40.067 Z" transform="translate(453.092 1.084)"/>
  </g>
</svg>
